<?xml version="1.0" encoding="UTF-8" standalone="no"?><!DOCTYPE svg PUBLIC "-//W3C//DTD SVG 1.1//EN" "http://www.w3.org/Graphics/SVG/1.1/DTD/svg11.dtd">
<svg width="100%" height="100%" viewBox="0 0 67 67" version="1.1" xmlns="http://www.w3.org/2000/svg"
     xml:space="preserve"
     style="fill-rule:evenodd;clip-rule:evenodd;stroke-linejoin:round;stroke-miterlimit:2;"><rect id="ArtBoard1" x="0" y="0" width="66.667" height="66.667" style="fill:none;"/><g><g><path d="M26.973,44.004c-2.555,-0 -4.859,-0.551 -6.91,-1.653c-2.052,-1.102 -3.658,-2.62 -4.818,-4.555c-1.161,-1.934 -1.741,-4.109 -1.741,-6.523c-0,-2.415 0.58,-4.59 1.741,-6.524c1.16,-1.935 2.766,-3.453 4.818,-4.555c2.051,-1.101 4.355,-1.652 6.91,-1.652c2.556,-0 4.854,0.551 6.893,1.652c2.04,1.102 3.646,2.62 4.818,4.555c1.173,1.934 1.759,4.109 1.759,6.524c0,2.414 -0.586,4.589 -1.759,6.523c-1.172,1.935 -2.778,3.453 -4.818,4.555c-2.039,1.102 -4.337,1.653 -6.893,1.653Zm0,-4.853c1.454,-0 2.767,-0.335 3.939,-1.003c1.172,-0.668 2.093,-1.6 2.761,-2.796c0.668,-1.196 1.002,-2.556 1.002,-4.079c0,-1.524 -0.334,-2.884 -1.002,-4.08c-0.668,-1.196 -1.589,-2.128 -2.761,-2.796c-1.172,-0.668 -2.485,-1.002 -3.939,-1.002c-1.453,-0 -2.766,0.334 -3.938,1.002c-1.173,0.668 -2.093,1.6 -2.761,2.796c-0.669,1.196 -1.003,2.556 -1.003,4.08c0,1.523 0.334,2.883 1.003,4.079c0.668,1.196 1.588,2.128 2.761,2.796c1.172,0.668 2.485,1.003 3.938,1.003Z" style="fill:#6c707e;"/></g><g><path d="M55.108,33.98l-7.807,0l-4.009,9.602l-5.838,-0l10.972,-24.618l5.627,0l11.008,24.618l-5.979,-0l-3.974,-9.602Zm0,0l-3.903,-9.425l-3.904,9.425l7.807,0Z" style="fill:#6c707e;"/></g><g><path d="M4.397,50.686c-1.923,-0 -3.389,-0.352 -4.397,-1.055l1.477,-3.975c0.634,0.446 1.407,0.669 2.321,0.669c0.704,-0 1.255,-0.229 1.653,-0.686c0.399,-0.457 0.598,-1.143 0.598,-2.057l0,-18.921l5.487,-0l-0,18.886c-0,2.203 -0.627,3.944 -1.882,5.222c-1.254,1.278 -3.007,1.917 -5.257,1.917Zm4.396,-28.663c-1.008,0 -1.829,-0.293 -2.462,-0.879c-0.633,-0.586 -0.95,-1.313 -0.95,-2.18c-0,-0.868 0.317,-1.595 0.95,-2.181c0.633,-0.586 1.454,-0.879 2.462,-0.879c1.008,-0 1.828,0.281 2.461,0.844c0.633,0.563 0.95,1.266 0.95,2.11c0,0.915 -0.317,1.671 -0.95,2.268c-0.633,0.598 -1.453,0.897 -2.461,0.897Z" style="fill:#6c707e;fill-rule:nonzero;"/></g><g><path d="M66.595,26.783l-23.313,16.83l-5.849,0l-9.038,-10.928l5.641,-0l6.24,4.66l20.737,-10.558l5.582,-0.004Z" style="fill:#6c707e;fill-rule:nonzero;"/></g></g></svg>
