<?xml version="1.0" encoding="UTF-8" standalone="no"?>
<!DOCTYPE svg PUBLIC "-//W3C//DTD SVG 1.1//EN" "http://www.w3.org/Graphics/SVG/1.1/DTD/svg11.dtd">
<svg width="100%" height="100%" viewBox="0 0 568 297" version="1.1" xmlns="http://www.w3.org/2000/svg"
     xmlns:xlink="http://www.w3.org/1999/xlink" xml:space="preserve"
     style="fill-rule:evenodd;clip-rule:evenodd;stroke-linejoin:round;stroke-miterlimit:2;">
    <g transform="matrix(1,0,0,1,0,-3.65833)">
        <g transform="matrix(4.16667,0,0,4.16667,0,0)">
            <path d="M55.155,58.337C49.929,58.337 45.219,57.21 41.024,54.957C36.829,52.703 33.545,49.599 31.172,45.644C28.799,41.689 27.612,37.242 27.612,32.304C27.612,27.366 28.799,22.919 31.172,18.964C33.545,15.009 36.829,11.905 41.024,9.651C45.219,7.399 49.929,6.272 55.155,6.272C60.381,6.272 65.079,7.399 69.25,9.651C73.421,11.905 76.705,15.009 79.102,18.964C81.499,22.919 82.698,27.366 82.698,32.304C82.698,37.242 81.499,41.689 79.102,45.644C76.705,49.599 73.421,52.703 69.25,54.957C65.079,57.21 60.381,58.337 55.155,58.337ZM55.155,48.413C58.127,48.413 60.812,47.729 63.209,46.363C65.606,44.997 67.488,43.091 68.854,40.646C70.221,38.201 70.904,35.42 70.904,32.304C70.904,29.188 70.221,26.407 68.854,23.962C67.488,21.517 65.606,19.611 63.209,18.245C60.812,16.879 58.127,16.196 55.155,16.196C52.183,16.196 49.498,16.879 47.101,18.245C44.704,19.611 42.822,21.517 41.456,23.962C40.089,26.407 39.406,29.188 39.406,32.304C39.406,35.42 40.089,38.201 41.456,40.646C42.822,43.091 44.704,44.997 47.101,46.363C49.498,47.729 52.183,48.413 55.155,48.413Z"
                  style="fill:rgb(108, 112, 126);"/>
        </g>
        <g transform="matrix(4.16667,0,0,4.16667,0,0)">
            <path d="M112.685,37.841L96.721,37.841L88.523,57.474L76.585,57.474L99.022,7.136L110.528,7.136L133.037,57.474L120.811,57.474L112.685,37.841ZM112.685,37.841L104.703,18.569L96.721,37.841L112.685,37.841Z"
                  style="fill:rgb(108, 112, 126);"/>
        </g>
        <g transform="matrix(4.16667,0,0,4.16667,0,0)">
            <path d="M8.99,72C5.059,72 2.062,71.281 0,69.843L3.021,61.716C4.316,62.627 5.898,63.083 7.767,63.083C9.206,63.083 10.332,62.615 11.147,61.68C11.962,60.746 12.37,59.343 12.37,57.474L12.37,18.784L23.588,18.784L23.588,57.402C23.588,61.908 22.306,65.468 19.741,68.081C17.176,70.694 13.592,72 8.99,72ZM17.979,13.391C15.918,13.391 14.24,12.792 12.945,11.593C11.651,10.395 11.003,8.908 11.003,7.136C11.003,5.361 11.651,3.874 12.945,2.676C14.24,1.477 15.918,0.878 17.979,0.878C20.041,0.878 21.718,1.453 23.013,2.604C24.307,3.755 24.955,5.193 24.955,6.919C24.955,8.789 24.307,10.335 23.013,11.557C21.718,12.78 20.041,13.391 17.979,13.391Z"
                  style="fill:rgb(97,187,70);fill-rule:nonzero;"/>
        </g>
        <g transform="matrix(4.16667,0,0,4.16667,0,0)">
            <path d="M136.173,23.124L88.502,57.538L76.542,57.538L58.062,35.192L69.596,35.192L82.356,44.721L124.759,23.132L136.173,23.124Z"
                  style="fill:rgb(97,187,70);fill-rule:nonzero;"/>
        </g>
    </g>
</svg>
